<svg id="Слой_1" data-name="Слой 1" xmlns="http://www.w3.org/2000/svg" viewBox="0 0 512 512">
    <defs>
        <style>.cls-1{fill:#f3d357;}.cls-2{fill:#272727;}</style>
    </defs>
    <title>Иконки</title>
    <circle class="cls-1" cx="362.33" cy="149.67" r="100"/>
    <path class="cls-2"
          d="M147.11,253.2A50.84,50.84,0,1,0,198,304,50.9,50.9,0,0,0,147.11,253.2Zm0,89.67A38.83,38.83,0,1,1,185.94,304,38.88,38.88,0,0,1,147.11,342.87Z"/>
    <path class="cls-2"
          d="M166.33,298a6,6,0,0,0-6,6,13.21,13.21,0,1,1-13.21-13.21,6,6,0,0,0,0-12A25.22,25.22,0,1,0,172.33,304,6,6,0,0,0,166.33,298Z"/>
    <path class="cls-2"
          d="M364.89,253.2A50.84,50.84,0,1,0,415.73,304,50.9,50.9,0,0,0,364.89,253.2Zm0,89.67A38.83,38.83,0,1,1,403.72,304,38.88,38.88,0,0,1,364.89,342.87Z"/>
    <path class="cls-2"
          d="M384.1,298a6,6,0,0,0-6,6,13.21,13.21,0,1,1-13.21-13.21,6,6,0,1,0,0-12A25.22,25.22,0,1,0,390.11,304,6,6,0,0,0,384.1,298Z"/>
    <path class="cls-2"
          d="M454.16,261.16V234.27A31.63,31.63,0,0,0,449.65,218l-27.32-45.53a31.79,31.79,0,0,0-27.12-15.35h-56a18.84,18.84,0,0,0-18.82,18.82v38.83H299.7L317,148.6a6.81,6.81,0,0,1,6.58-5.09h92.59a6,6,0,0,0,0-12H323.54a18.81,18.81,0,0,0-17.82,12.81H57.44a6,6,0,0,0,0,12H68.19L161.58,229a76.46,76.46,0,1,0,58.69,97.34,18.7,18.7,0,0,0,10.11,3h51.24a18.7,18.7,0,0,0,10.11-3A76.46,76.46,0,0,0,441.35,304c0-.14,0-.28,0-.42l.41,0h6.41a12.42,12.42,0,0,0,12.41-12.41V272A12.42,12.42,0,0,0,454.16,261.16Zm-24.3-52.8h-65a6.81,6.81,0,0,1-6.81-6.81V188.35h58a6,6,0,0,0,1.59-.22Zm-97.4-32.43a6.81,6.81,0,0,1,6.81-6.81h56a19.73,19.73,0,0,1,15.18,7.21H352.08a6,6,0,0,0-6,6v19.22a18.84,18.84,0,0,0,18.82,18.82h70.46a6,6,0,0,0,1.59-.22l2.42,4a19.62,19.62,0,0,1,2.8,10.09V259.6H428.94a6,6,0,0,0-1.69.24,76.39,76.39,0,0,0-94.79-25Zm-12,50.84V240a6,6,0,0,0,.24,1.69,76.76,76.76,0,0,0-29,40.11,18.69,18.69,0,0,0-8.76-2.91l13.59-52.1Zm-17.92-70.46-32,122.5H257.37L285.48,171a6,6,0,0,0-11.62-3L245,278.63l-11-8.54,25.84-99a6,6,0,0,0-11.62-3l-24.53,94-11-8.54L234.24,171a6,6,0,0,0-11.62-3L202.41,245.5l-11-8.54L208.62,171A6,6,0,1,0,197,168l-15.89,60.92-11-8.54L183,171a6,6,0,1,0-11.62-3l-11.57,44.35-11-8.58a6,6,0,0,0,.25-.71l8.35-32a6,6,0,0,0-11.62-3l-7.25,27.78-11-8.54L131.76,171a6,6,0,0,0-11.62-3l-2.93,11.22L87.75,156.32ZM216.3,271.52l10,7.76a18.72,18.72,0,0,0-6,2.51A75.74,75.74,0,0,0,216.3,271.52Zm-69.19,97A64.45,64.45,0,1,1,211.56,304,64.52,64.52,0,0,1,147.11,368.49Zm141.31-58a6.81,6.81,0,0,1-6.81,6.81H230.38a6.81,6.81,0,0,1-6.81-6.81V297.63a6.81,6.81,0,0,1,6.81-6.81h51.24a6.81,6.81,0,0,1,6.81,6.81Zm76.46,58A64.45,64.45,0,1,1,429.34,304,64.52,64.52,0,0,1,364.89,368.49Zm83.67-77.26a.4.4,0,0,1-.4.4h-6.41a6,6,0,0,0-1.39.17,75.8,75.8,0,0,0-6.24-20.18h14a.4.4,0,0,1,.4.4Z"/>
    <path class="cls-2" d="M236.78,298A6,6,0,1,0,241,299.8,6,6,0,0,0,236.78,298Z"/>
</svg>