<svg id="Слой_1" data-name="Слой 1" xmlns="http://www.w3.org/2000/svg" viewBox="0 0 512 512">
    <defs>
        <style>.cls-1{fill:#f3d357;}.cls-2{fill:#272727;}</style>
    </defs>
    <title>Иконки</title>
    <circle class="cls-1" cx="362.33" cy="149.67" r="100"/>
    <path class="cls-2"
          d="M146.36,286.72a6.4,6.4,0,0,0-6.4-6.4H64.88a6.4,6.4,0,1,0,0,12.8H140A6.4,6.4,0,0,0,146.36,286.72Z"/>
    <path class="cls-2" d="M78.53,362.22a6.41,6.41,0,1,0,4.52,1.88A6.41,6.41,0,0,0,78.53,362.22Z"/>
    <path class="cls-2" d="M262.83,375a6.41,6.41,0,1,0-4.52-1.88A6.42,6.42,0,0,0,262.83,375Z"/>
    <path class="cls-2"
          d="M99.44,368.62a6.4,6.4,0,0,0,6.4,6.4H235.52a6.4,6.4,0,0,0,0-12.8H105.83A6.4,6.4,0,0,0,99.44,368.62Z"/>
    <path class="cls-2"
          d="M447.12,116.5a26.73,26.73,0,0,0-9.6,1.78l-199,56.61a33.54,33.54,0,0,0-5.7,2.21l-.32.16a33.78,33.78,0,0,0-14.9,15l-20.15,40.31H167.27A13.24,13.24,0,0,0,154,245.76v14.08h-14.5V241.76a13.14,13.14,0,0,0-3.87-9.35l-4.83-4.83a6.4,6.4,0,1,0-9,9l4.83,4.83a.43.43,0,0,1,.12.3v18.08H51.23A13.24,13.24,0,0,0,38,273.06v41a13.24,13.24,0,0,0,13.22,13.22h82.33v14.5h-55a26.88,26.88,0,0,0,0,53.75H262.83a26.88,26.88,0,1,0,0-53.75h-55v-14.5h34.56a6.4,6.4,0,0,0,6.4-6.4V281.05l15.5-41.32a20.82,20.82,0,0,1,13-12.49l147-49,16.19,140.28-43.72,43.72h-11a6.4,6.4,0,1,0,0,12.8h68.26A20.07,20.07,0,0,0,474,355V143.38A26.91,26.91,0,0,0,447.12,116.5Zm14.08,26.88a14.07,14.07,0,0,1-27.72,3.42l-.42-3.67a14.09,14.09,0,0,1,8.69-12.75l.5-.18a14,14,0,0,1,19,13.19Zm-41,0s0,.06,0,.09c0,.43,0,.86,0,1.29L347,157.33l74.21-21.11a26.8,26.8,0,0,0-1,7.16ZM235.95,291.13l-28.24-10.59A21,21,0,0,1,194.14,261V245.33h19.8A14.06,14.06,0,0,1,227.29,255l8.66,26ZM50.8,314v-41a.43.43,0,0,1,.43-.43H154v41.81H51.23A.43.43,0,0,1,50.8,314Zm226.1,54.61a14.09,14.09,0,0,1-14.08,14.08H78.53a14.08,14.08,0,1,1,0-28.16H262.83A14.09,14.09,0,0,1,276.9,368.62ZM195,341.75H146.36v-14.5H195Zm-28.16-27.3V245.76a.43.43,0,0,1,.43-.43h14.08V261a33.86,33.86,0,0,0,21.87,31.56l32.74,12.28v9.64Zm106.32-99.35a33.56,33.56,0,0,0-20.9,20.14l-9.56,25.49-3.27-9.81a26.84,26.84,0,0,0-25.5-18.38h-2.19L229,198a21,21,0,0,1,8.57-8.93l184.22-31.51.89,7.72Zm162.74-47.3a26.8,26.8,0,0,0,25.3-1.53V297.72L452,307ZM461.2,355a7.26,7.26,0,0,1-7.25,7.25H414.79l46.41-46.41Z"/>
</svg>