<svg id="Слой_1" data-name="Слой 1" xmlns="http://www.w3.org/2000/svg" viewBox="0 0 512 512">
    <defs>
        <style>.cls-1{fill:#f3d357;}.cls-2{fill:#272727;stroke:#272727;stroke-miterlimit:10;stroke-width:1.65px;}
        </style>
    </defs>
    <title>Иконки</title>
    <circle class="cls-1" cx="362.33" cy="149.67" r="100"/>
    <path class="cls-2"
          d="M197.32,319c14.06,19.82,28.09,37.55,37.39,49,1.35,1.66,2.62,3.2,3.85,4.69H210.49a5.69,5.69,0,1,0,0,11.38h91a5.69,5.69,0,0,0,0-11.38H273.44l3.86-4.69c9.3-11.38,23.32-29.14,37.39-49a499.83,499.83,0,0,0,37.58-60.57c11.62-22.81,17.51-41.75,17.51-56.29a113.7,113.7,0,0,0-33.32-80.56,5.69,5.69,0,1,0-8,8,102.36,102.36,0,0,1,30,72.52c0,12.73-5.47,29.93-16.27,51.12a488.53,488.53,0,0,1-36.73,59.16c-13.87,19.56-27.73,37.09-36.92,48.35-3.05,3.74-5.8,7.05-8.15,9.85a5.76,5.76,0,0,1-8.67,0c-2.34-2.8-5.09-6.11-8.15-9.85-9.19-11.26-23.05-28.79-36.92-48.35a488.53,488.53,0,0,1-36.73-59.16c-10.81-21.19-16.27-38.39-16.27-51.12a102.43,102.43,0,0,1,142.28-94.5,5.69,5.69,0,0,0,4.44-10.48,113.82,113.82,0,0,0-158.1,105c0,14.54,5.89,33.48,17.51,56.32A499.48,499.48,0,0,0,197.32,319Z"/>
    <path class="cls-2"
          d="M256,150.77a5.69,5.69,0,0,0,0-11.38,56.89,56.89,0,1,0,40.23,16.66,5.69,5.69,0,1,0-8,8A45.51,45.51,0,1,1,256,150.77Z"/>
    <path class="cls-2"
          d="M424.52,398.64l-35-62.58a17.68,17.68,0,0,0-15.48-8.94H333.51a5.69,5.69,0,0,0,0,11.38h40.54a6.31,6.31,0,0,1,5.56,3.11l35,62.58a5.12,5.12,0,0,1-.05,5.26,6.26,6.26,0,0,1-5.51,3H103a6.26,6.26,0,0,1-5.5-3,5.12,5.12,0,0,1-.05-5.26l35-62.58a6.3,6.3,0,0,1,5.55-3.11h40.54a5.69,5.69,0,1,0,0-11.38H137.95a17.69,17.69,0,0,0-15.49,8.94l-35,62.58a16.5,16.5,0,0,0,.18,16.56A17.52,17.52,0,0,0,103,423.83H409a17.52,17.52,0,0,0,15.31-8.64A16.5,16.5,0,0,0,424.52,398.64Z"/>
    <path class="cls-2"
          d="M364.09,355.57H341.33a5.72,5.72,0,0,0-3.16,1L321.11,367.9a5.69,5.69,0,0,0,6.31,9.47L343,366.94h21a5.69,5.69,0,0,0,0-11.38Z"/>
    <path class="cls-2"
          d="M330,395.39a5.69,5.69,0,0,0,5.69,5.69h45.51a5.69,5.69,0,1,0,0-11.38H335.65A5.69,5.69,0,0,0,330,395.39Z"/>
    <path class="cls-2"
          d="M187.74,378.32a5.69,5.69,0,0,0,3.16-10.42l-17.07-11.38a5.72,5.72,0,0,0-3.16-1H147.92a5.69,5.69,0,1,0,0,11.38h21l15.63,10.42A5.68,5.68,0,0,0,187.74,378.32Z"/>
    <path class="cls-2" d="M130.85,389.7a5.69,5.69,0,1,0,0,11.38h45.51a5.69,5.69,0,1,0,0-11.38Z"/>
</svg>