<svg id="Слой_1" data-name="Слой 1" xmlns="http://www.w3.org/2000/svg" viewBox="0 0 512 512">
    <defs>
        <style>.cls-1{fill:#f3d357;}.cls-2{fill:#272727;stroke:#272727;stroke-miterlimit:10;stroke-width:1.65px;}
        </style>
    </defs>
    <title>Иконки</title>
    <circle class="cls-1" cx="362.33" cy="149.67" r="100"/>
    <path class="cls-2"
          d="M214.71,287.85H198a4.48,4.48,0,0,0-4.48,4.48v16.74a4.48,4.48,0,0,0,4.48,4.48h16.74a4.48,4.48,0,0,0,4.48-4.48V292.33A4.48,4.48,0,0,0,214.71,287.85Zm-4.48,16.74h-7.77v-7.77h7.77Z"/>
    <path class="cls-2"
          d="M246.88,287.85H230.15a4.48,4.48,0,0,0-4.48,4.48v16.74a4.48,4.48,0,0,0,4.48,4.48h16.74a4.48,4.48,0,0,0,4.48-4.48V292.33A4.48,4.48,0,0,0,246.88,287.85Zm-4.48,16.74h-7.77v-7.77h7.77Z"/>
    <path class="cls-2"
          d="M279.05,287.85H262.32a4.48,4.48,0,0,0-4.48,4.48v16.74a4.48,4.48,0,0,0,4.48,4.48h16.74a4.48,4.48,0,0,0,4.48-4.48V292.33A4.48,4.48,0,0,0,279.05,287.85Zm-4.48,16.74H266.8v-7.77h7.77Z"/>
    <path class="cls-2"
          d="M214.71,320.3H198a4.48,4.48,0,0,0-4.48,4.48v16.74A4.48,4.48,0,0,0,198,346h16.74a4.48,4.48,0,0,0,4.48-4.48V324.78A4.48,4.48,0,0,0,214.71,320.3ZM210.23,337h-7.77v-7.77h7.77Z"/>
    <path class="cls-2"
          d="M246.88,320.3H230.15a4.48,4.48,0,0,0-4.48,4.48v16.74a4.48,4.48,0,0,0,4.48,4.48h16.74a4.48,4.48,0,0,0,4.48-4.48V324.78A4.48,4.48,0,0,0,246.88,320.3ZM242.4,337h-7.77v-7.77h7.77Z"/>
    <path class="cls-2"
          d="M279.05,320.3H262.32a4.48,4.48,0,0,0-4.48,4.48v16.74a4.48,4.48,0,0,0,4.48,4.48h16.74a4.48,4.48,0,0,0,4.48-4.48V324.78A4.48,4.48,0,0,0,279.05,320.3ZM274.57,337H266.8v-7.77h7.77Z"/>
    <path class="cls-2"
          d="M214.71,352.74H198a4.48,4.48,0,0,0-4.48,4.48V374a4.48,4.48,0,0,0,4.48,4.48h16.74A4.48,4.48,0,0,0,219.2,374V357.23A4.48,4.48,0,0,0,214.71,352.74Zm-4.48,16.74h-7.77v-7.77h7.77Z"/>
    <path class="cls-2"
          d="M246.88,352.74H230.15a4.48,4.48,0,0,0-4.48,4.48V374a4.48,4.48,0,0,0,4.48,4.48h16.74a4.48,4.48,0,0,0,4.48-4.48V357.23A4.48,4.48,0,0,0,246.88,352.74Zm-4.48,16.74h-7.77v-7.77h7.77Z"/>
    <path class="cls-2"
          d="M279.05,352.74H262.32a4.48,4.48,0,0,0-4.48,4.48V374a4.48,4.48,0,0,0,4.48,4.48h16.74a4.48,4.48,0,0,0,4.48-4.48V357.23A4.48,4.48,0,0,0,279.05,352.74Zm-4.48,16.74H266.8v-7.77h7.77Z"/>
    <path class="cls-2" d="M334,211.83V341.51a4.48,4.48,0,1,0,9,0V211.83a4.48,4.48,0,1,0-9,0Z"/>
    <path class="cls-2"
          d="M196.47,197.18h42a4.48,4.48,0,1,0,0-9h-42a14.06,14.06,0,0,0-14,14v39.06a14.06,14.06,0,0,0,14,14h84.09a14.06,14.06,0,0,0,14-14V202.26a14.06,14.06,0,0,0-14-14H255.25a4.48,4.48,0,0,0,0,9h25.31a5.09,5.09,0,0,1,5.08,5.08v39.06a5.09,5.09,0,0,1-5.08,5.08H196.47a5.09,5.09,0,0,1-5.08-5.08V202.26A5.09,5.09,0,0,1,196.47,197.18Z"/>
    <path class="cls-2"
          d="M356.28,265a4.48,4.48,0,0,0,4.48-4.48V197.58a16.16,16.16,0,0,0-16.14-16.14H325.79V164.55a20.2,20.2,0,0,0-20.18-20.18h-11v-4.08a11.87,11.87,0,0,0-11.86-11.86H270.12V110.38a6.24,6.24,0,0,0-3.3-5.6c-4.05-2.1-7,1.38-8,1.83l-3.46-2.44a5.7,5.7,0,0,0-6.64,0l-3.46,2.44-3.46-2.44a5.7,5.7,0,0,0-6.64,0l-3.46,2.44-3.46-2.44a5.7,5.7,0,0,0-6.64,0l-3.46,2.44-2-1.41h0a5.94,5.94,0,0,0-9.26,5.19v18.05H194.28a11.87,11.87,0,0,0-11.86,11.86v4.08h-11a20.2,20.2,0,0,0-20.18,20.18v180a4.48,4.48,0,0,0,9,0v-180a11.22,11.22,0,0,1,11.21-11.21h11v15.24a11.87,11.87,0,0,0,11.86,11.85h88.47a11.87,11.87,0,0,0,11.86-11.85V153.34h11a11.22,11.22,0,0,1,11.21,11.21V388.73a11.22,11.22,0,0,1-11.21,11.21H301V283.16a15.66,15.66,0,0,0-15.64-15.64H188.7a15.66,15.66,0,0,0-15.64,15.64V399.94h-1.64a11.22,11.22,0,0,1-11.21-11.21V361.28a4.48,4.48,0,1,0-9,0v27.45a20.2,20.2,0,0,0,20.18,20.18H305.62a20.2,20.2,0,0,0,20.17-20.18v-14.2h18.83a16.16,16.16,0,0,0,16.14-16.14V277.24a4.48,4.48,0,0,0-9,0v81.15a7.18,7.18,0,0,1-7.17,7.17H325.79V190.4h18.83a7.18,7.18,0,0,1,7.17,7.17V260.5A4.48,4.48,0,0,0,356.28,265ZM215.87,115.82c4.19,1.85,6.88-1.87,9.08-3l3.46,2.44a5.7,5.7,0,0,0,6.64,0l3.46-2.44,3.46,2.44a5.71,5.71,0,0,0,6.64,0l3.46-2.44c2.2,1.16,4.89,4.87,9.09,3v37.83H215.87Zm69.77,52.77a2.89,2.89,0,0,1-2.89,2.89H194.28a2.89,2.89,0,0,1-2.89-2.89v-28.3a2.89,2.89,0,0,1,2.89-2.89H206.9v16.24h-5.6a4.48,4.48,0,0,0,0,9h74.43a4.48,4.48,0,0,0,0-9h-5.61V137.4h12.63a2.89,2.89,0,0,1,2.89,2.89ZM182,399.94V283.16a6.68,6.68,0,0,1,6.68-6.68h96.65a6.68,6.68,0,0,1,6.68,6.68V399.94Z"/>
</svg>