<svg id="Слой_1" data-name="Слой 1" xmlns="http://www.w3.org/2000/svg" viewBox="0 0 512 512">
    <defs>
        <style>
            .cls-1{fill:#f3d357;}.cls-2,.cls-3{fill:#272727;}.cls-3{stroke:#272727;stroke-miterlimit:10;stroke-width:1.46px;}
        </style>
    </defs>
    <title>Иконки</title>
    <circle class="cls-1" cx="362.33" cy="149.67" r="100"/>
    <path class="cls-2"
          d="M419.43,102H384.26a5.54,5.54,0,0,0,0,11.09h35.16a12.5,12.5,0,0,1,12.49,12.49v84.59a12.5,12.5,0,0,1-12.49,12.49H289.83a5.55,5.55,0,0,0-3.92,1.62L254,256.15v-28a5.54,5.54,0,0,0-5.54-5.54H237.89a12.5,12.5,0,0,1-12.49-12.49V125.52A12.5,12.5,0,0,1,237.89,113H365.79a5.54,5.54,0,1,0,0-11.09H237.89a23.6,23.6,0,0,0-23.57,23.57v84.59a23.6,23.6,0,0,0,23.57,23.57h5v35.84a5.54,5.54,0,0,0,9.46,3.92l39.76-39.76h127.3A23.6,23.6,0,0,0,443,210.11V125.52A23.6,23.6,0,0,0,419.43,102Z"/>
    <path class="cls-2"
          d="M269.36,173c6.57-4.5,14.75-10.1,14.75-19.67a13.87,13.87,0,0,0-5.32-11.2,18.87,18.87,0,0,0-11.63-3.87c-8,0-16.44,4.9-16.44,14,0,4,1.69,6,5.16,6,3.91,0,6-2.17,6-4.22,0-3.39,1.94-5.34,5.33-5.34,4,0,5.41,2.72,5.41,5,0,4.31-5.08,8-10.45,12-6.07,4.45-12.34,9.06-12.34,15.08v7c0,2.18,3,3.57,5,3.57h25.76c1.86,0,3.49-2.38,3.49-5.09s-1.63-4.94-3.49-4.94H261.75v-.56C261.75,178.25,265.28,175.84,269.36,173Z"/>
    <path class="cls-2"
          d="M314.77,191.37c3.94,0,5.74-1.85,5.74-3.56v-7.58h3c1.8,0,3.57-2.63,3.57-5.3,0-3.64-1.85-5.3-3.57-5.3h-3v-5c0-1.61-1.5-3.49-5.74-3.49S309,163,309,164.65v5h-6l12.74-25.56a3.64,3.64,0,0,0,.37-1.41,4,4,0,0,0-2.13-3.19,7.36,7.36,0,0,0-3.6-1.17,5.18,5.18,0,0,0-4.79,2.94L288.93,174a4.7,4.7,0,0,0-.59,2.21,3.72,3.72,0,0,0,3.86,4H309v7.58C309,189.53,310.83,191.37,314.77,191.37Z"/>
    <path class="cls-2"
          d="M358,137.19l-25.4,52.17a3.32,3.32,0,0,0-.37,1.42,4.1,4.1,0,0,0,4.15,3.93,3.7,3.7,0,0,0,3.34-1.86l25.47-52.17a3.23,3.23,0,0,0,.3-1.42c0-2.35-2.25-3.93-4.36-3.93A3.28,3.28,0,0,0,358,137.19Z"/>
    <path class="cls-2"
          d="M377.43,156.65c3.15,0,5.81-1.63,5.81-3.57v-4.76H396v4.95l-17.79,30.81a3.79,3.79,0,0,0-.52,1.93c0,3.42,3.82,5.81,7.26,5.81,1.63,0,2.7-.51,3.26-1.57l16.93-32.41c.54-1,2.33-4.55,2.33-6.92v-9c0-1.56-2.43-3.56-5-3.56H376.78c-2.53,0-5,1.77-5,3.56v11.22C371.76,155,374.31,156.65,377.43,156.65Z"/>
    <path class="cls-3"
          d="M298.2,294.38a15.27,15.27,0,0,0-21.59,0l-33.88,33.88c-13.49-7.05-25.23-13.77-38.34-24.83a5.54,5.54,0,0,0-7.14,8.47c15.15,12.77,28.33,20,44,28.07a5.54,5.54,0,0,0,6.46-1l18.23-18.22L326,380.83c-19.41,16.66-46.9,22.46-78.1,16.33-35.1-6.9-72.24-28.51-104.58-60.85s-54-69.48-60.85-104.58c-6.13-31.21-.33-58.7,16.32-78.1l60.1,60.09L140.67,232a5.54,5.54,0,0,0-1,6.47c11,21.34,19.94,37,42.25,59.31a5.54,5.54,0,0,0,7.84-7.84c-20-20-28.38-33.85-38.38-53L185.26,203a15.27,15.27,0,0,0,0-21.59l-54.33-54.33a15.26,15.26,0,0,0-21.59,0L94.73,141.72c-22.23,22.23-30.44,55-23.13,92.15s30,76.4,63.89,110.28,73,56.57,110.28,63.89a133.22,133.22,0,0,0,25.74,2.6c26.45,0,49.47-8.8,66.41-25.73l14.6-14.6a15.27,15.27,0,0,0,0-21.59Zm-181-159.43a4.18,4.18,0,0,1,5.91,0l54.34,54.34a4.18,4.18,0,0,1,0,5.91l-10.69,10.69-60.25-60.25ZM344.69,362.46,334,373.15,273.76,312.9l10.69-10.69a4.18,4.18,0,0,1,5.91,0l54.33,54.33A4.19,4.19,0,0,1,344.69,362.46Z"/>
</svg>