<svg id="Слой_1" data-name="Слой 1" xmlns="http://www.w3.org/2000/svg" viewBox="0 0 512 512">
    <defs>
        <style>.cls-1{fill:#f3d357;}.cls-2{fill:#272727;}</style>
    </defs>
    <title>Иконки</title>
    <circle class="cls-1" cx="362.33" cy="149.67" r="100"/>
    <path class="cls-2"
          d="M342.49,290.66c-5.86-12.22-26.83-29.18-47.09-45.57-11.3-9.13-22-17.77-28.78-24.58a6.22,6.22,0,0,0-6.51-1.46c-4.19,1.52-6.78,2.69-8.82,3.6a20.58,20.58,0,0,1-8.35,2.29,6.22,6.22,0,0,0-4.55,2.73c-8.8,13.15-17.91,12-24,10-1.94-.65-2.29-1.48-2.48-2.28-1.31-5.46,5.25-18.18,13.75-26.68,20.22-20.23,30.65-25.3,52.68-15.46,25,11.17,50,19.92,50.28,20a6.23,6.23,0,1,0,4.09-11.76c-.25-.09-24.79-8.66-49.28-19.63-28.54-12.76-44.19-4.36-66.55,18-8.51,8.51-20.07,25.74-17.09,38.37,1.28,5.38,5.07,9.36,10.69,11.21,14.1,4.65,27,.2,36.55-12.52a31.41,31.41,0,0,0,9.35-3c1.17-.52,2.54-1.13,4.36-1.87,7.12,6.68,16.73,14.46,26.84,22.64,18.29,14.8,39,31.57,43.71,41.28,2.3,4.79-.17,7.91-1.85,9.35-2.46,2.12-5.84,2.79-7.67,1.51a6.22,6.22,0,0,0-9.72,5.79c.42,4-3.2,6.22-4.77,7-4,2-8.14,1.67-9.69.22a6.22,6.22,0,0,0-10.44,4,11.82,11.82,0,0,1-7.34,9.53,6.56,6.56,0,0,1-7.14-1.11,6.29,6.29,0,0,0-5.69-1.44,6.21,6.21,0,0,0-4.37,3.92c-.24.62-.77,2.12-6.6,2.12-4.14,0-11.6-2.8-15.24-5.21-4.37-2.87-31.76-23.31-55.42-43.12-3.32-2.8-9.07-8.8-14.15-14.1-4.51-4.7-8.62-9-10.74-10.76a6.23,6.23,0,0,0-8,9.51c1.93,1.63,5.66,5.57,9.78,9.87,5.55,5.8,11.29,11.8,15.15,15,23.17,19.4,51,40.35,56.57,44,4.58,3,14.45,7.24,22.09,7.24,6.13,0,10.85-1.41,14.12-4.16a19.37,19.37,0,0,0,14.15-.15,24.51,24.51,0,0,0,13-12,24.06,24.06,0,0,0,15.62-2.25A21.11,21.11,0,0,0,323.24,320a20.35,20.35,0,0,0,14.27-5.11A19.78,19.78,0,0,0,342.49,290.66Z"/>
    <path class="cls-2" d="M231.11,187.55h-56a6.22,6.22,0,1,0,0,12.44h56a6.22,6.22,0,1,0,0-12.44Z"/>
    <path class="cls-2"
          d="M360.72,277.42a6.21,6.21,0,0,0-8.64-1.69l-18.19,12.22a6.22,6.22,0,0,0,6.94,10.33L359,286.05A6.23,6.23,0,0,0,360.72,277.42Z"/>
    <path class="cls-2"
          d="M322.09,307.11c-4.45-3.51-24.38-23.91-36.7-36.75a6.22,6.22,0,0,0-9,8.61c3.2,3.33,31.41,32.74,38,37.92a6.2,6.2,0,0,0,3.85,1.33,6.29,6.29,0,0,0,4.9-2.38A6.22,6.22,0,0,0,322.09,307.11Z"/>
    <path class="cls-2"
          d="M297.23,319.59c-7.45-6-26.18-25.86-30.41-30.46a6.23,6.23,0,0,0-9.17,8.43c.22.24,22.57,24.37,31.81,31.76a6.22,6.22,0,0,0,7.78-9.72Z"/>
    <path class="cls-2"
          d="M272.46,332.12c-8.87-7.48-27-26.81-30.58-30.6a6.23,6.23,0,1,0-9.1,8.5c5.1,5.46,22.47,23.88,31.65,31.62a6.23,6.23,0,0,0,8-9.52Z"/>
    <path class="cls-2"
          d="M179.39,176.81c-10.67-10.11-53.31-13.38-66.13-14.14a6.22,6.22,0,0,0-6.6,6.21v112a6.22,6.22,0,0,0,6.22,6.22h37.33a6.22,6.22,0,0,0,5.91-4.29c.91-2.79,22.35-68.59,25.18-100.95A6.19,6.19,0,0,0,179.39,176.81Zm-33.71,97.85H119.11V175.56c20,1.58,41.58,5,49.42,8.82C165.23,211.63,150.31,260.06,145.68,274.67Z"/>
    <path class="cls-2"
          d="M399.11,175.11c-48.86,0-76,12.51-77.09,13A6.19,6.19,0,0,0,318.7,192a6.27,6.27,0,0,0,.68,5.05c7.69,12.38,31.77,81.15,36.4,97.93a6.22,6.22,0,0,0,6,4.57h37.33a6.22,6.22,0,0,0,6.22-6.22v-112A6.22,6.22,0,0,0,399.11,175.11Zm-6.22,112H366.43c-5.9-19.21-23.32-69.32-33-90,9.49-3.22,29.89-8.76,59.5-9.46Z"/>
</svg>