<svg xmlns="http://www.w3.org/2000/svg" xmlns:xlink="http://www.w3.org/1999/xlink" width="90" height="90"><defs><path id="a" d="M1031 602.1l-3.89-6.59 5.95-3.68 6.26 10.26zm-36.62-.02l20.94-12.71 3.74 6.33a3.52 3.52 0 0 0 .5.86l3.28 5.52zm53.59 38.16h-11.78a3.52 3.52 0 0 1 0-7.03h11.78zm-11.78-14.06a10.56 10.56 0 0 0 0 21.09h15.29a3.52 3.52 0 0 0 3.52-3.52v-27.6c0-4.67-2.3-8.83-5.83-11.38l-11.96-19.62a3.51 3.51 0 0 0-4.85-1.16l-8.82 5.47-3.98-6.73a3.52 3.52 0 0 0-4.85-1.22l-33.87 20.58h-5.3a3.52 3.52 0 0 1-3.5-3.42 3.52 3.52 0 0 1 3.5-3.43h6.51a3.52 3.52 0 1 0 0-7.03h-6.5c-4.98 0-9.16 3.46-10.26 8.1-.19.43-.29.9-.29 1.39v59.24c0 7.75 6.3 14.06 14.06 14.06h61.88c6.06 0 11.42-3.86 13.34-9.61a3.52 3.52 0 1 0-6.67-2.23 7.02 7.02 0 0 1-6.67 4.8h-61.88a7.04 7.04 0 0 1-7.03-7.02v-48.42c1.1.4 2.28.6 3.52.6h65.39a7.04 7.04 0 0 1 7.03 7.04v10.02z"/></defs><use fill="#fff" xlink:href="#a" transform="translate(-965 -581)"/></svg>