<?xml version="1.0" encoding="utf-8"?>
<!-- Generator: Adobe Illustrator 23.0.3, SVG Export Plug-In . SVG Version: 6.00 Build 0)  -->
<svg version="1.1" xmlns="http://www.w3.org/2000/svg" xmlns:xlink="http://www.w3.org/1999/xlink" x="0px" y="0px"
	 viewBox="0 0 1080 1080" style="enable-background:new 0 0 1080 1080;" xml:space="preserve">
<style type="text/css">
	.st0{display:none;}
	.st1{fill:#FFFFFF;}
</style>
<g id="Слой_1" class="st0">
	
		<image style="display:inline;overflow:visible;" width="257" height="259" xlink:href="A17AED29.jpg"  transform="matrix(3.8261 0 0 3.8261 -140.1738 -741)">
	</image>
</g>
<g id="Слой_2">
	<g>
		<path class="st1" d="M758,673c0,0,18-6,25,3s9,26-8,37s-29,7-33,9s-4,13-11,23s-23,26-38,26s-35-8-36-22s14-21,22-22
			s23.3-6.7,22-13c-1-5-8-3-14-5s-12-13-6-26s17-11,17-11s-15-18-5-33s18-15,28-16c6-5-2-12-2-14s-10-16-2-33s29.7-23.7,46-17
			c15,7,28,19,28,42c0,11-9,18-9,18s16.8,0.1,15,16c-2,18-17,1-20,17c-2.9,15.5-21.8,11-19,11C765,663,765,669,758,673z"/>
		<path class="st1" d="M584,781c0,0,21,15,16,32s-16,34-33,32s-28-2-31-11s-4-15-4-15s-11,14-19,15s-33,2-40-4s-13-20-5-28
			s38-21,48-17s13,7,19,7s19-10,30-11S584,781,584,781z"/>
		<path class="st1" d="M885,541c0,0,19-4,16-22c-2.2-13-19-22-28-16c-13,8.7-10,23-8,27s1,7,1,7s-15,1-15,10s6,11,11,9s-1,19,10,24
			c14.6,6.6,26-6,27-13C901,553,885,541,885,541z"/>
		<path class="st1" d="M788,441c0,0,22,18,22,47s-6,49-26,49s-27-19-25-25s-2-7-2-7s-12,6-19-4s-6-25-6-26s-19,7-29,0s-21-14-19-37
			s10-41,28-39s20,17,23,19s5,4,5,4s2-20,16-21s25,0,30,14S788,441,788,441z"/>
		<path class="st1" d="M646,242c0,0,5,25-4,33s-20,11-36,3c-10.8-5.4-12-20-13-22s-8-1-8,0s-6.3,8.1-14,11c-8,3-19-4-19-11
			s3-12-2-12c0,0-9,10-10,12s-17,13-26,7s-20-19-12-28s21-7,26-9s6-15,12-21s19-13,35-9s25,11,30,18s6,12,12,12S639,223,646,242z"/>
		<path class="st1" d="M350,248c0,0,25,12,41,0s19-39,3-48s-37-15-48,0s-16,13-16,13s3,0-3-6c-2.2-2.2-14.6-6.6-20,2c-5,8,0,16,0,16
			s-19-16-37-6c-14.8,8.2-16,23-12,34s4,15,4,15s-13-1-13,13s7,23,21,26s31-18,31-19s15,8,33-7S350,248,350,248z"/>
		<path class="st1" d="M281.5,131.8c0,0,12.1,21.9,3.4,33.8s-16.9,12.8-28.7,10.1c-5.3,9.4-19.6,3.3-19.6,3.3s-1.2,16-17.6,17.7
			c-16.4,1.8-21.7-11.1-21.7-11.1s-11-0.5-10.7-17.6s17.9-19.7,29.6-17.1c11.7,2.6,8.5-9.3,16.6-10.8c12.4-2.3,15.3-0.9,19.7,3.7
			C255.1,133.2,268.9,121,281.5,131.8z"/>
		<path class="st1" d="M468,582c0,0-12-12,1-19c11.5-6.2,15-1,21,9c6-11,20.9-9.7,31-3c12,8,12,39-3,47s-20,3-28,0c0,6-11,11-17,5
			c1,9-15,13.6-23,2c-9-13-2.1-26.3,4-28C468,591,468,582,468,582z"/>
		<path class="st1" d="M952.2,422.3c-23-68.9-53.6-84.2-57.4-84.2s0-7.7,3.8-19.1c3.8-11.5,3.8-45.9-7.7-57.4
			c-11.5-11.5-19.1-7.7-23-30.6c-2.5-15.1-23-15.3-34.4-19.1c-11.5-3.8-3.8-11.5-19.1-19.1c-15.3-7.7-30.6,0-30.6-3.8
			s7.7-19.1-3.8-30.6c-11.5-11.5-19.1-7.7-23-11.5c-3.8-3.8,3.8-15.3-11.5-23c-14.1-7.1-23,0-30.6,0c-7.7,0-11.5-19.1-30.6-19.1
			c-19.1,0-38.3,19.1-45.9,15.3c-7.7-3.8-23-34.4-53.6-45.9c-30.6-11.5-49.7-15.3-72.7,0c-23,15.3-30.6,30.6-34.4,30.6
			c-3.8,0-7.7,0-11.5-3.8s-15.7-17.1-42.1-23c-33.3-7.4-83.1,19.1-88,45.9C320,126,310.2,150.9,313,158c4,10,18.4,17.4,26.9,0.3
			c19.1,1.7,68.9-19.1,80.4-7.7c3.8,3.8,16.2,21.9,34.4,19.1c11.3,9.2,36.3,18.2,53.6,3.8C527.4,188.9,573,190,596,180
			c13-7.1,20,19,30.9,20.4c3.8,11.5,26.8,16.8,42.1,20.6c15.3,3.8,32-2,32-2s-6,24,10.1,38.8c6.3,5.8-3.8,26.8,15.3,42.1
			c19.1,15.3,26.8,11.5,26.8,11.5s3.8,34.4,19.1,49.7c15.3,15.3,42.1,23,49.7,23s-7.7,23,3.8,34.4c7.7,7.7,26.8,11.5,26.8,11.5
			s-7.7,7.7,7.7,19.1c15.3,11.5,38.3,0,38.3,11.5c0,11.5,7.7,23,15.3,34.4c7.7,11.5,7.7,38.3,3.8,53.6c-3.8,15.3,7.7,7.7,15.3,0
			C939.1,542.5,975.1,491.2,952.2,422.3z M810,289c-17,12-34,2-37-6s-5-21-5-21s-25-6-30-18s1-28,17-30c0,0,13-2,22,16
			c6.6,13.2,27,0,33,14S827,277,810,289z"/>
		<path class="st1" d="M671,537c-11.5-26.8-32.6-22.7-32.6-22.7s8.4-21.2,4.6-40.3s-13-30.5-36-42s-53,17-53,17s-3.8-33.8-32-39
			c-16.8-3.1-34.3,24.7-42,17c-7.7-7.7-15.8-31.9-50-23c-54,14-36.3,65.2-44,69s-28-1-30.8,37.5c-0.8,11.5,7.7,26.8,7.7,26.8
			s-16,5.1-7.7,23C363,577,387,567,387,567s0.9,26.2,20,30c9.5,1.9,20,0,27.8-5.7c4.4-3.2,6.2-11.8,3.2-16.3c-2-3-8-2-10-2
			c-7.7,0-11.6-1.3-15.4-5.1c-3-3-1.3-6,3.3-9c6.1-4,11.3-9.3,14.8-15.8c4.9-9,4.9-13.5,4.9-13.5s7.7,8.3,15.3,7.7
			C466,536,466.2,522,470,525.8s2.7,11.4,18,15.2s24.1-11.4,24.1-11.4s-1.9,10.2,7.7,15.3c11.2,6.1,19.1,0,19.1,0
			c-2.9,3.1-8.4,17.5,0,30.6c6.2,9.7,15.1,16.4,19.1,19.1c3.2,2.1-7,6.1-7.7,11.5c-1.4,11.8,0,11.5,7.7,15.3
			c7.7,3.8-6.2,7.3-12,13.5c-10.4,11,0.6,24.7,0.6,28.6c0,3.8-11.9-6.7-19.6,3.4c-6,8-5,11-3.4,19.5C521,682,513,674,502,685
			c-7,6-9,13-9,13s-15-11-34-3c-6.5,2.7-14.2,13.5-17.1,14.1C438,707,432,696,432,696s-12-31-61.5-36.3c6.5-19.7,4.2-38.7-7.7-53.6
			c-16.9-23.2-49.7-34.4-49.7-34.4s38.3-30.6,30.6-76.5c-3.2-19.2-28-24.9-23-26.8c20.9-7.9,27.5-38.2,23.8-44.9
			c0.9,0.2,2.9,0.2,6.8-1C360,420,364,422,373,414c6.4-5.7,4-31,12.8-33.6c15.3,0,15.7,3.4,34.4,0c18.7-3.4,30.6-23,30.6-23
			s26.4-33.8,38.3-30.6C501,330,495.1,347,515,350c11.5,0,16.1-4.2,20.1-7.9C546,332,564,336,564,336s4,18,28.5,21.4
			c3.8,0.5,19.1,0,23,3.8s7.7,15.3,11.5,19.1c11.5,11.5,26.8,3.8,26.8,3.8s15.3-15.3,3.8-26.8c-11.5-11.5-23-11.5-30.6-19.1
			c-7.7-7.7-3.8-19.1-19.1-26.8c-15.3-7.7-38.3-11.5-45.9-7.7c-7.7,3.8-17.2,10-24.9,6.1s1.9-17.6-5.8-25.3
			c-7.7-7.7-19.2-6.7-30.2-1.7c-9.9,4.5-13.6,4.1-19.5-2.1C475,274,457,266,445,276c-10.6,8.8-9.4,12.6-20.9,12.6
			c-11.5,0-19.4-8.6-34.4-11.5c-21.7-4.1-42.1,0-61.2,19.1c-19.1,19.1-23,34.4-26.8,38.3c-3.8,3.8-27.6,1.5-49.6,14.5
			c-14,8.3-31.2,28-35,51s0.5,41.6,0.5,41.6S190.8,456.2,187,483s7.2,41.3,11,49s15.6,9.1,11.8,12.9S168.2,562.4,172,593
			s23.5,44,35,44s18.1-0.2,18.1-0.2s-14.8,24.7-7.1,36.2c7.7,11.5,18.6,17.3,18.6,17.3S208,698.9,208,718s5.6,29.7,20.9,37.4
			c15.3,7.7,26.8,3.8,26.8,3.8s11.5,11.5,23,19.1c11.5,7.7,19.1,0,19.1,3.8s3.8,15.3,15.3,23c11.5,7.7,42.1,7.7,49.7,3.8
			s15.3-15.3,3.8-23c-6.8-4.5-24.3,4.5-31.7-5c-7-9-16-13-24-17c-6.3-3.2,3.6-12-5-21c-5.4-5.7-6-8-12-10.6c0-7.7-3.8-19.1-11.5-23
			S271,701.8,271,698s6.1-8.7,10-1s10.3,19.2,18,23c7.7,3.8,20.2,2,24,2c3.8,0,1,21,9,29c7.7,7.7,27.2,17.9,38.5,19.7
			c27.5,4.3,30.6-7.7,34.4-7.7s0,3.8,11.5,15.3c11.5,11.5,38.3,19.1,57.4,11.5c19.1-7.7,19.1-19.1,26.8-19.1c0,0,4.7,5.2,8.4,6.3
			c7,2,21,11,41.4,1.4c4.9-2.3,9.6-9.1,23-7.7c21.7,2.3,32.1-1.1,41.7-14.7c11-15.6,0.4-31.2,0.4-31.2s11.5,0,23-19.1
			c11.5-19.1,3.8-42.1,3.8-42.1s16.4,2.7,23-15.3C674,624,661,608,661,608S682.5,563.8,671,537z M265,426c-7-12-4-26,4-31s12-1,17-2
			s0.9-12.4,7-16c5-3,12-4,16,3c0,0,4,11,0,15s-12,5-12,5s-2,2-2,6s5,11-2,20S272,438,265,426z M330,683c4,15-10,11-10,11s-1-5-7-6
			s-8,0-11-8s2-9,2-9s-10-2-9-9s2-12-4-16s-5.1-33-3-26c4,13,13,11,16,24c5,1,8.3,6.7,7,10c-2,5,19-2,25,9S330,683,330,683z
			 M583,720c0,0,2,5-4,10c-8.2,6.8-17,1-21-2c-3,7-9,10-16,12s-12,1-15-4s-4.7-13.1,0-17c6-5,13-7,19-6s15,9,15,2s-5-9-5-12
			s-1-15,6-15s10,1,10,1s4-14,16-11c0,0,17,3,17,24C605,719,583,720,583,720z"/>
		<path class="st1" d="M700,866c3-8-9-8-12-1s-8,3-16,7s-10,20-16,25s-9,2-14,2s-6-8-11-9s-5,8-7,11c-4-1-11,0-15,3s-6,14-6,14
			s-5,2-13,3c-6,0-12,3-17,12c-12-3-24-4-28,3c-6-1-10-14-21-8c3-13-11-27-17-34s-26-5-29-6s-7-14-16-26s-27-20-53-24s-40,22-44,18
			s-2-24-33-32c-19.6-5.1-28,16-31,19s-10,4-15,0s-9-34-15-54s-22-17-29-16c-14,1-21,15-21,15s-6-27-22-25c-1-14-30.7-19.8-26-32
			c7.5-19.5-12.2-33.6-17-30c-4-5-11-9-17-5s3,16,5,22s3,8-1,13s-4,7-7,14s-7,16,3,35s26,18,28,20s0,4-1,13s1,28,14,43s32,13,37,13
			s15,0,15,3s9,40,22,56s27,22,43,23s24-6,26-5s3,5,19,9s29-4,29-4s11.6-8.5,13-3c2,8,11,18,27,22s28-7,36-13s10,1,15,7s28,16,34,17
			s19-2,24-4s23,2,31,0s8-9,16-17s17-3,30-3s42,4,62-9s38-31,44-49S701,871,700,866z M420,927c-16,4-25-3-31-6s-8-13-8-13s-9,6-17,1
			c-7.7-4.8-5-15-1-18s10-1,13,0s4,11,7,11s14-9,29,0S420,927,420,927z"/>
		<path class="st1" d="M193,311c3-3,24-19,22-38s-13-21-13-21c-12-6-35-2-55,6s-80,76-90,130s8,70,18,81s6,17-1,23s-34,23-34,60
			s31,45,31,45s-12,14-12,33c0,30.1,7,38,35,48s44-11,45-21c0.8-8,4-25-1-37s-10-14-17-16c0-4,20-9,25-23s8-49,4-69s-19-34-19-34
			s17-6,27-20s2-55,2-55s26-11,39-41S190,314,193,311z M102,566c-3.4,16.1,10.6,32.3,15,30c0,0,0,0,0,0c0.5-0.3,0.5-0.2,0,0
			c0,0,0,0,0,0c0,0,0,0,0,0c-2.5,1.2-14.2-0.3-25-7c-8-5-15-10-15-23s6-17,6-17s-4-14-2-30s21-24,33-21c3.5,0.9-13,8-10,21
			s15,24,15,24S105,552,102,566z"/>
		<path class="st1" d="M905,605c-26-10-53-2-59,8s-5,26.9-5,34c0,9-18.9,8.4-22,15c-6,13-3,19-2,32s-2,25-7,26s-30-1-39,17
			s-7,42-6,52s2.8,13.9-4,19c-4,3-10,1-13,10c-3.2,9.5,0,14,1,20c1.4,8.1,2,11-6,15s-15-2-19,11c-3.2,10.3,3,19,8,21c0,0,11,3,19-1
			s11-12,15-15s9,3,18-5c9.6-8.5,6-10,7-13s3-14,6-13s15,5,19,2s12-14,15-20s11-11,20-13s25-3,27-18s-7-28-5-31s11-2,19-5
			s18-5,20-19s-3-21-5-27s0-11,0-11s19-2,23-25S931,615,905,605z M898,676c-8,11-20,11-20,11s15-7,13-22s-10-8-16-12s-12-12-4-20
			s23-10,30,4S907.3,663.2,898,676z"/>
		<path class="st1" d="M134.6,184.5c0,0,7.9,7.1,4.8,13.9c-3.2,6.8-9.6,11.2-14.9,10.2c-5.4-1-9.3,0.1-9.3,0.1s-3.2,6.8-10.7,7.3
			c-7.5,0.4-6.8-3.2-8.3-5.3s-6.8-3.2-3.7-10c3.2-6.8,13.9-4.8,17.8-5.9S126.3,179.2,134.6,184.5z"/>
		<path class="st1" d="M1015.1,541.2c0,0-6.3,6.9-4.8,13c1.4,6.1,5.7,9.5,5.1,11.1c-0.6,1.6-1.2,3.2-2.8,2.6
			c-1.6-0.6-7.7,0.8-5.7,5.3s6.5,2.4,6.3,7.9c-0.2,5.5-7.6,12.8-5,18.5c2,4.5,4.7,7.3,8.5,6.9s6.7-3.1,7.7-0.8
			c1,2.2,1.4,6.1,4.7,7.3c3.2,1.2,8.1,3,13.8-2.3c5.7-5.3,3.8-15.2-0.5-18.7c-4.3-3.4,6.3-6.9,3.2-13.6s-7.9-8.5-10.6-11.3
			s-0.8-7.7,2-10.3c2.8-2.6,5.2-9.1-1.7-15.4C1028.5,535.1,1018.6,536.9,1015.1,541.2z"/>
		<path class="st1" d="M53,711c17,4,4.7,19.4,4.7,19.4s3-0.1,5.3,3.6c6,10-4.4,13.9-3.6,15.4c0.8,1.6,7.3,2.2,10.6,4.6
			c7,5,8.5,15.2,3,20s-13.6,1.8-16-3s-3-12-3-12s-7,7-11,4c-12.3-9.2-2-16-2-16s-8,0-8-9c0-10,7.9-9.1,7.9-9.1S36,707,53,711z"/>
	</g>
</g>
</svg>
