<?xml version="1.0" encoding="utf-8"?>
<!-- Generator: Adobe Illustrator 18.1.1, SVG Export Plug-In . SVG Version: 6.00 Build 0)  -->
<svg version="1.1" id="Layer_1" xmlns="http://www.w3.org/2000/svg" xmlns:xlink="http://www.w3.org/1999/xlink" x="0px" y="0px"
	 viewBox="0 0 219.4 203.9" enable-background="new 0 0 219.4 203.9" xml:space="preserve">
<g color="green">
	<path fill="none" stroke="#f31c4c" stroke-width="8" stroke-miterlimit="10" d="M19.2,133.1c-8.4,0-15.2-6.8-15.2-15.2v-10.4V75.3
		c10.4-12.2,25.9-20,43.2-20s32.8,7.8,43.2,20v33.2v9.4c0,8.4-6.8,15.2-15.2,15.2"/>
	<circle fill="none" stroke="#f31c4c" stroke-width="8" stroke-miterlimit="10" cx="47.2" cy="22.2" r="18.2"/>
	<line fill="none" stroke="#f31c4c" stroke-width="8" stroke-miterlimit="10" x1="19.2" y1="199.9" x2="19.2" y2="87.9"/>
	<line fill="none" stroke="#f31c4c" stroke-width="8" stroke-miterlimit="10" x1="75.2" y1="87.9" x2="75.2" y2="199.9"/>
	<path fill="none" stroke="#f31c4c" stroke-width="8" stroke-miterlimit="10" d="M86.6,71.2c3.6-0.7,7.2-1.1,11-1.1
		c17.3,0,32.8,7.8,43.2,20v33.2v9.4c0,8.4-6.8,15.2-15.2,15.2"/>
	<circle fill="none" stroke="#f31c4c" stroke-width="8" stroke-miterlimit="10" cx="97.6" cy="37.1" r="18.2"/>
	<line fill="none" stroke="#f31c4c" stroke-width="8" stroke-miterlimit="10" x1="125.6" y1="102.8" x2="125.6" y2="199.9"/>
	<path fill="none" stroke="#f31c4c" stroke-width="8" stroke-miterlimit="10" d="M138.7,88c3.6-0.7,7.2-1.1,11-1.1
		c17.3,0,32.8,7.8,43.2,20v33.2v9.4c0,8.4-6.8,15.2-15.2,15.2"/>
	<circle fill="none" stroke="#f31c4c" stroke-width="8" stroke-miterlimit="10" cx="149.7" cy="53.9" r="18.2"/>
	<line fill="none" stroke="#f31c4c" stroke-width="8" stroke-miterlimit="10" x1="177.6" y1="119.6" x2="177.6" y2="199.9"/>
	<line fill="none" stroke="#f31c4c" stroke-width="8" stroke-miterlimit="10" x1="47.2" y1="133.1" x2="47.2" y2="199.9"/>
	<line fill="none" stroke="#f31c4c" stroke-width="8" stroke-miterlimit="10" x1="219.4" y1="199.9" x2="94.8" y2="199.9"/>
</g>
</svg>
