<?xml version="1.0" encoding="utf-8"?>
<!-- Generator: Adobe Illustrator 18.1.1, SVG Export Plug-In . SVG Version: 6.00 Build 0)  -->
<svg version="1.1" id="Layer_1" xmlns="http://www.w3.org/2000/svg" xmlns:xlink="http://www.w3.org/1999/xlink" x="0px" y="0px"
	 viewBox="0 0 222.9 210.7" enable-background="new 0 0 222.9 210.7" xml:space="preserve">
<g>
	<path fill="none" stroke="#C9C8C8" stroke-width="8" stroke-miterlimit="10" d="M19.2,139.9c-8.4,0-15.2-6.8-15.2-15.2v-10.4V82.1
		c10.4-12.2,25.9-20,43.2-20h36.4"/>
	<circle fill="none" stroke="#C9C8C8" stroke-width="8" stroke-miterlimit="10" cx="47.2" cy="29.1" r="18.2"/>
	<polyline fill="none" stroke="#C9C8C8" stroke-width="8" stroke-miterlimit="10" points="162.6,206.7 75.2,206.7 64,206.7 	"/>
	<line fill="none" stroke="#C9C8C8" stroke-width="8" stroke-miterlimit="10" x1="180.9" y1="206.7" x2="171.5" y2="206.7"/>
	<line fill="none" stroke="#C9C8C8" stroke-width="8" stroke-miterlimit="10" x1="19.2" y1="94.8" x2="19.2" y2="206.7"/>
	<path fill="none" stroke="#C9C8C8" stroke-width="8" stroke-miterlimit="10" d="M75.2,206.7V81.9v-4.5h32.2h10.4
		c8.4,0,15.2-6.8,15.2-15.2H75.2"/>
	<line fill="none" stroke="#C9C8C8" stroke-width="8" stroke-miterlimit="10" x1="47.2" y1="139.9" x2="47.2" y2="206.7"/>
	<line fill="none" stroke="#C9C8C8" stroke-width="8" stroke-miterlimit="10" x1="114.6" y1="77.4" x2="114.6" y2="206.7"/>
	<line fill="none" stroke="#C9C8C8" stroke-width="8" stroke-miterlimit="10" x1="114.6" y1="0" x2="114.6" y2="62.1"/>
	<g>
		<path fill="none" stroke="#C9C8C8" stroke-width="8" stroke-miterlimit="10" d="M217.2,45.5c-35.3,8.1-67.3-9-102.6-0.7
			c0-14.5,0-21.7,0-36.2c35.3-8.3,67.3,8.8,102.6,0.7c-2.3,8.2-3.5,12.2-5.8,20.1C213.7,35.9,214.9,39.2,217.2,45.5z"/>
	</g>
</g>
</svg>