<svg width="205" height="62" viewBox="0 0 205 62" fill="none" xmlns="http://www.w3.org/2000/svg">
<path d="M84.55 43.45H81.37L75.5 25.85H79.5L83.1 37.6501L87.1 25.8H89.9L93.9 37.6501L97.5 25.85H101.42L95.52 43.45H92.34L88.52 31.7701L84.55 43.45Z" fill="#4B1B64"/>
<path d="M116.9 43.35H103.77V25.85H116.62V29.08H107.37V32.46H114.82V35.63H107.37V40.13H116.89L116.9 43.35Z" fill="#4B1B64"/>
<path d="M128.57 43.35H119.77V25.85H128C129.381 25.7771 130.744 26.1834 131.86 27C132.338 27.3869 132.717 27.8811 132.967 28.4424C133.217 29.0037 133.331 29.6162 133.3 30.23C133.323 31.0001 133.106 31.7583 132.68 32.4C132.291 32.9774 131.742 33.4291 131.1 33.7C132.084 33.9206 132.965 34.4667 133.6 35.25C134.305 36.136 134.661 37.2495 134.6 38.38C134.63 39.0659 134.501 39.7493 134.224 40.3772C133.946 41.0051 133.527 41.5605 133 42C131.734 42.9679 130.161 43.4471 128.57 43.35ZM123.37 28.85V32.7H127.42C128.046 32.7359 128.666 32.5598 129.18 32.2C129.391 32.0346 129.558 31.8212 129.67 31.5776C129.781 31.3341 129.833 31.0675 129.82 30.8C129.834 30.5266 129.784 30.2536 129.672 30.0034C129.561 29.7532 129.392 29.5328 129.18 29.36C128.669 28.9931 128.048 28.813 127.42 28.85H123.37ZM123.37 35.68V40.25H127.89C128.636 40.2947 129.376 40.0869 129.99 39.66C130.242 39.4595 130.441 39.2011 130.572 38.9069C130.703 38.6127 130.76 38.2913 130.74 37.97C130.758 37.6476 130.699 37.3256 130.569 37.0302C130.438 36.7348 130.24 36.4743 129.99 36.27C129.379 35.836 128.638 35.6243 127.89 35.67L123.37 35.68Z" fill="#4B1B64"/>
<path d="M149.85 43.65C148.623 43.6517 147.403 43.4697 146.23 43.11C145.234 42.8335 144.295 42.3796 143.46 41.77V40.45C144.262 41.0877 145.164 41.5878 146.13 41.93C147.291 42.3595 148.522 42.573 149.76 42.56C151.077 42.62 152.38 42.2707 153.49 41.56C153.952 41.2669 154.33 40.8601 154.589 40.3785C154.849 39.8969 154.98 39.3568 154.97 38.81C154.976 38.3747 154.89 37.943 154.718 37.5432C154.546 37.1433 154.291 36.7845 153.97 36.49C153.611 36.1852 153.206 35.9389 152.77 35.76C152.317 35.5426 151.849 35.3588 151.37 35.21C151.137 35.1234 150.587 34.9634 149.72 34.73L147.85 34.18C147.25 33.9467 146.74 33.73 146.32 33.53C145.639 33.2176 145.053 32.7313 144.62 32.12C144.232 31.4476 144.026 30.6862 144.02 29.91C144.014 29.3149 144.149 28.7268 144.413 28.1935C144.677 27.6601 145.063 27.1965 145.54 26.84C146.777 25.944 148.285 25.5024 149.81 25.59C151.673 25.5325 153.512 26.0227 155.1 27V28.23C153.554 27.175 151.722 26.6168 149.85 26.63C148.622 26.552 147.402 26.871 146.37 27.54C145.976 27.8106 145.657 28.1763 145.442 28.6031C145.227 29.0299 145.123 29.5041 145.14 29.9817C145.157 30.4593 145.294 30.925 145.539 31.3355C145.783 31.7459 146.128 32.088 146.54 32.33C146.857 32.5212 147.192 32.6819 147.54 32.81C147.893 32.9559 148.253 33.0827 148.62 33.19L149.82 33.54L150.35 33.69L152.05 34.21C152.576 34.3778 153.085 34.5954 153.57 34.86C154.079 35.0762 154.547 35.3809 154.95 35.76C155.344 36.1517 155.654 36.6199 155.86 37.1358C156.067 37.6518 156.165 38.2045 156.15 38.76C156.175 39.466 156.02 40.1666 155.7 40.7963C155.38 41.426 154.905 41.9641 154.32 42.36C153 43.2437 151.438 43.6945 149.85 43.65Z" fill="#4B1B64"/>
<path d="M165.65 43.35H164.5V26.93H158.23V25.85H171.93V26.93H165.66L165.65 43.35Z" fill="#4B1B64"/>
<path d="M172.37 43.35H171.15L179.1 25.75H180.18L188.08 43.35H186.88L184.56 38.2H174.7L172.37 43.35ZM179.62 27.25L175.1 37.25H184.1L179.62 27.25Z" fill="#4B1B64"/>
<path d="M192.67 43.35H191.52V25.85H198.8C200.246 25.7552 201.674 26.2087 202.8 27.12C203.255 27.5677 203.617 28.1015 203.864 28.6904C204.111 29.2793 204.238 29.9114 204.238 30.55C204.238 31.1885 204.111 31.8207 203.864 32.4096C203.617 32.9985 203.255 33.5323 202.8 33.98C201.678 34.9011 200.249 35.3622 198.8 35.27H192.67V43.35ZM192.67 26.93V34.2H198.67C199.825 34.2583 200.963 33.9038 201.88 33.2C202.24 32.8513 202.525 32.434 202.721 31.9728C202.916 31.5116 203.016 31.0158 203.016 30.515C203.016 30.0141 202.916 29.5184 202.721 29.0572C202.525 28.596 202.24 28.1786 201.88 27.83C200.956 27.1447 199.819 26.8083 198.67 26.88L192.67 26.93Z" fill="#4B1B64"/>
<path d="M68.72 56.1299V13.0699" stroke="#323232" stroke-width="0.75"/>
<path d="M29.7699 0.130005L42.4899 7.47001L13.1199 24.43L0.399902 17.09L29.7699 0.130005Z" fill="#FACCFF"/>
<path d="M42.4801 22.1801L55.1901 29.5301L25.8301 46.4801L13.1101 39.1401L42.4801 22.1801Z" fill="#F7A9FF"/>
<path d="M13.1201 24.43V39.11L42.4901 22.16V7.46997L13.1201 24.43Z" fill="url(#paint0_linear)"/>
<path d="M25.8301 46.48V61.17L55.1901 44.21V29.53L25.8301 46.48Z" fill="url(#paint1_linear)"/>
<path d="M56.79 53.74C56.79 53.2267 56.79 52.7267 56.79 52.24" stroke="#4B1B64" stroke-width="1.5" stroke-linecap="round"/>
<path d="M56.6 49.0001C55.06 34.2001 44.78 30.0001 39.3 30.8501C38.4854 30.9869 37.7066 31.2861 37.01 31.7301" stroke="#4B1B64" stroke-width="1.5" stroke-linecap="round" stroke-dasharray="3.2 3.2"/>
<path d="M35.7299 32.6899C35.3587 33.0251 35.0081 33.3825 34.6799 33.7599" stroke="#4B1B64" stroke-width="1.5" stroke-linecap="round"/>
<path d="M34.6599 33.89C34.6599 33.3833 34.6599 32.8833 34.6599 32.39" stroke="#4B1B64" stroke-linecap="round"/>
<path d="M34.58 29.4899C33.31 8.61995 20.07 1.82995 12 2.10995" stroke="#4B1B64" stroke-linecap="round" stroke-dasharray="2.91 2.91"/>
<path d="M10.5401 2.23999H10.4801C10.0067 2.31722 9.54143 2.43773 9.09009 2.59999" stroke="#4B1B64" stroke-linecap="round"/>
<path d="M9.21009 0.329956L4.09009 6.27995L11.5001 3.68996L9.21009 0.329956Z" fill="#4B1B64"/>
<path d="M0.399902 17.09V46.48L25.8299 61.17V46.48L13.1199 39.11V24.43L0.399902 17.09Z" fill="#7132BA"/>
<defs>
<linearGradient id="paint0_linear" x1="13.1201" y1="23.29" x2="42.4901" y2="23.29" gradientUnits="userSpaceOnUse">
<stop stop-color="#9E4FC9"/>
<stop offset="1" stop-color="#6129DD"/>
</linearGradient>
<linearGradient id="paint1_linear" x1="25.8201" y1="45.35" x2="55.1901" y2="45.35" gradientUnits="userSpaceOnUse">
<stop offset="0.2" stop-color="#692D8A"/>
<stop offset="1" stop-color="#552191"/>
</linearGradient>
</defs>
</svg>
